<svg width="240" height="40" viewBox="0 0 240 40" fill="none" xmlns="http://www.w3.org/2000/svg">
<path d="M26 11V0H14V11L20 17L26 11ZM11 14H0V26H11L17 20L11 14ZM14 29V40H26V29L20 23L14 29ZM29 14L23 20L29 26H40V14H29Z" fill="#00D4FF"/>
<path d="M51.68 13.424H57.992C59.48 13.424 60.624 13.536 61.424 13.76C62.24 13.968 62.816 14.312 63.152 14.792C63.488 15.256 63.656 15.912 63.656 16.76V18.68C63.656 19.112 63.48 19.52 63.128 19.904C62.792 20.288 62.392 20.552 61.928 20.696V20.816C62.536 20.88 63.088 21.144 63.584 21.608C64.096 22.056 64.352 22.56 64.352 23.12V25.52C64.352 26.784 63.848 27.68 62.84 28.208C61.832 28.736 60.272 29 58.16 29H51.68V13.424ZM57.992 19.76C58.584 19.76 59.024 19.712 59.312 19.616C59.6 19.52 59.792 19.368 59.888 19.16C60 18.936 60.056 18.616 60.056 18.2V17.432C60.056 17.064 60.008 16.792 59.912 16.616C59.816 16.424 59.616 16.288 59.312 16.208C59.024 16.128 58.56 16.088 57.92 16.088H55.424V19.76H57.992ZM58.088 26.336C59 26.336 59.648 26.232 60.032 26.024C60.416 25.816 60.608 25.48 60.608 25.016V23.768C60.608 23.192 60.456 22.784 60.152 22.544C59.864 22.304 59.344 22.184 58.592 22.184H55.424V26.336H58.088ZM66.8664 13.184H70.3704V16.016H66.8664V13.184ZM66.8664 17.384H70.3704V29H66.8664V17.384ZM78.2478 34.28C76.3598 34.28 74.9598 34.224 74.0478 34.112V31.76C75.5518 31.968 76.9518 32.072 78.2478 32.072C79.4318 32.072 80.2798 31.88 80.7918 31.496C81.3038 31.112 81.5598 30.472 81.5598 29.576V27.704C81.2718 28.12 80.9918 28.44 80.7198 28.664C80.4478 28.872 80.0878 29.016 79.6398 29.096C79.2078 29.192 78.6078 29.24 77.8398 29.24C76.7038 29.24 75.7998 29.136 75.1278 28.928C74.4558 28.704 73.9678 28.344 73.6638 27.848C73.3598 27.336 73.2078 26.632 73.2078 25.736V21.2C73.2078 20.128 73.3438 19.304 73.6158 18.728C73.9038 18.152 74.3838 17.744 75.0558 17.504C75.7438 17.264 76.7278 17.144 78.0078 17.144C78.8398 17.144 79.4798 17.192 79.9278 17.288C80.3598 17.384 80.6878 17.528 80.9118 17.72C81.1358 17.912 81.3918 18.24 81.6798 18.704V17.384H85.0638V29.624C85.0638 31.272 84.4958 32.456 83.3598 33.176C82.2398 33.912 80.5358 34.28 78.2478 34.28ZM79.0878 27.056C79.7758 27.056 80.2878 27.008 80.6238 26.912C80.9758 26.816 81.2158 26.664 81.3438 26.456C81.4878 26.232 81.5598 25.92 81.5598 25.52V20.84C81.5598 20.408 81.4958 20.088 81.3678 19.88C81.2398 19.656 80.9918 19.504 80.6238 19.424C80.2558 19.344 79.6798 19.304 78.8958 19.304C78.2558 19.304 77.7838 19.352 77.4798 19.448C77.1758 19.544 76.9678 19.712 76.8558 19.952C76.7598 20.176 76.7118 20.512 76.7118 20.96V25.4C76.7118 25.896 76.7598 26.256 76.8558 26.48C76.9678 26.688 77.1838 26.84 77.5038 26.936C77.8238 27.016 78.3518 27.056 79.0878 27.056ZM101.237 29.24C100.341 29.24 99.5486 29.2 98.8606 29.12C98.1726 29.04 97.4926 28.904 96.8206 28.712C96.1006 28.52 95.5086 28.264 95.0446 27.944C94.5806 27.608 94.2046 27.176 93.9166 26.648C93.6286 26.088 93.4846 25.448 93.4846 24.728V18.248C93.4846 17.464 93.6446 16.76 93.9646 16.136C94.2846 15.496 94.7166 14.992 95.2606 14.624C95.7726 14.288 96.3806 14 97.0846 13.76C97.8046 13.52 98.5086 13.36 99.1966 13.28C99.7726 13.216 100.469 13.184 101.285 13.184C103.493 13.184 105.605 13.352 107.621 13.688V16.52C105.765 16.072 103.653 15.848 101.285 15.848C98.5806 15.848 97.2286 16.632 97.2286 18.2V24.464C97.2286 25.232 97.5886 25.776 98.3086 26.096C99.0446 26.416 100.149 26.576 101.621 26.576C102.405 26.576 103.245 26.456 104.141 26.216V22.592H101.597V20.144H107.717V28.232C106.917 28.52 105.893 28.76 104.645 28.952C103.413 29.144 102.277 29.24 101.237 29.24ZM113.887 29.24C112.799 29.24 111.983 29.144 111.439 28.952C110.911 28.744 110.535 28.384 110.311 27.872C110.103 27.344 109.999 26.56 109.999 25.52C109.999 24.592 110.111 23.864 110.335 23.336C110.575 22.808 110.951 22.432 111.463 22.208C111.991 21.968 112.711 21.848 113.623 21.848H117.559V21.056C117.559 20.56 117.487 20.192 117.343 19.952C117.215 19.712 116.967 19.544 116.599 19.448C116.247 19.352 115.711 19.304 114.991 19.304C113.999 19.304 112.639 19.4 110.911 19.592V17.384C112.175 17.224 113.655 17.144 115.351 17.144C116.839 17.144 117.983 17.256 118.783 17.48C119.599 17.704 120.183 18.088 120.535 18.632C120.887 19.176 121.062 19.968 121.062 21.008V29H117.631V27.944C117.359 28.408 116.991 28.736 116.527 28.928C116.063 29.136 115.183 29.24 113.887 29.24ZM115.255 27.056C115.959 27.056 116.463 27.032 116.767 26.984C116.991 26.952 117.143 26.904 117.223 26.84C117.319 26.776 117.399 26.672 117.463 26.528C117.527 26.416 117.559 26.248 117.559 26.024V23.768H115.159C114.615 23.768 114.231 23.808 114.007 23.888C113.783 23.952 113.631 24.096 113.551 24.32C113.471 24.528 113.431 24.904 113.431 25.448C113.431 25.976 113.471 26.344 113.551 26.552C113.631 26.76 113.783 26.896 114.007 26.96C114.247 27.024 114.663 27.056 115.255 27.056ZM124.145 17.384H127.649V18.8C127.873 17.696 129.017 17.144 131.081 17.144C132.169 17.144 132.993 17.288 133.553 17.576C134.113 17.848 134.489 18.28 134.681 18.872C134.873 18.264 135.241 17.824 135.785 17.552C136.345 17.28 137.185 17.144 138.305 17.144C139.313 17.144 140.089 17.264 140.633 17.504C141.177 17.728 141.553 18.08 141.761 18.56C141.985 19.04 142.097 19.68 142.097 20.48V29H138.593V20.96C138.593 20.448 138.561 20.088 138.497 19.88C138.433 19.656 138.289 19.504 138.065 19.424C137.857 19.344 137.489 19.304 136.961 19.304C136.305 19.304 135.833 19.344 135.545 19.424C135.273 19.504 135.089 19.656 134.993 19.88C134.913 20.088 134.873 20.448 134.873 20.96V29H131.369V20.96C131.369 20.448 131.337 20.088 131.273 19.88C131.209 19.656 131.065 19.504 130.841 19.424C130.633 19.344 130.265 19.304 129.737 19.304C129.081 19.304 128.609 19.344 128.321 19.424C128.049 19.504 127.865 19.656 127.769 19.88C127.689 20.088 127.649 20.448 127.649 20.96V29H124.145V17.384ZM151.001 29.24C146.889 29.24 144.833 27.984 144.833 25.472V21.296C144.833 19.84 145.297 18.784 146.225 18.128C147.169 17.472 148.617 17.144 150.569 17.144C152.409 17.144 153.753 17.464 154.601 18.104C155.465 18.728 155.897 19.792 155.897 21.296V24.128H148.361V25.184C148.361 25.856 148.601 26.336 149.081 26.624C149.561 26.912 150.425 27.056 151.673 27.056C152.825 27.056 154.121 26.888 155.561 26.552V28.784C154.137 29.088 152.617 29.24 151.001 29.24ZM152.561 22.136V20.456C152.561 20.072 152.401 19.784 152.081 19.592C151.777 19.4 151.257 19.304 150.521 19.304C149.673 19.304 149.105 19.4 148.817 19.592C148.513 19.8 148.361 20.088 148.361 20.456V22.136H152.561Z" fill="#ED7947"/>
<path d="M169.29 29.24C167.802 29.24 165.962 29.096 163.77 28.808V25.952C166.49 26.368 168.346 26.576 169.338 26.576C171.418 26.576 172.458 26.04 172.458 24.968V23.96C172.458 23.448 172.306 23.056 172.002 22.784C171.714 22.512 171.186 22.376 170.418 22.376H168.594C165.17 22.376 163.458 21.016 163.458 18.296V17.144C163.458 15.784 164.026 14.784 165.162 14.144C166.298 13.504 168.098 13.184 170.562 13.184C171.842 13.184 173.466 13.288 175.434 13.496V16.28C173.018 15.992 171.354 15.848 170.442 15.848C169.178 15.848 168.33 15.952 167.898 16.16C167.434 16.384 167.202 16.736 167.202 17.216V18.32C167.202 19.136 167.89 19.544 169.266 19.544H171.138C172.914 19.544 174.202 19.872 175.002 20.528C175.802 21.184 176.202 22.184 176.202 23.528V24.56C176.202 26.416 175.538 27.672 174.21 28.328C173.57 28.664 172.858 28.896 172.074 29.024C171.306 29.168 170.378 29.24 169.29 29.24ZM182.693 29.24C181.205 29.24 180.157 28.976 179.549 28.448C178.957 27.904 178.661 27.056 178.661 25.904V17.384H182.165V25.424C182.165 25.872 182.205 26.208 182.285 26.432C182.381 26.656 182.557 26.816 182.813 26.912C183.085 27.008 183.493 27.056 184.037 27.056C184.725 27.056 185.229 27.016 185.549 26.936C185.869 26.84 186.085 26.68 186.197 26.456C186.309 26.232 186.365 25.888 186.365 25.424V17.384H189.869V29H186.413V27.584C186.157 28.688 184.917 29.24 182.693 29.24ZM192.934 17.384H196.27V19.424C196.27 19.056 196.422 18.696 196.726 18.344C197.03 17.992 197.414 17.704 197.878 17.48C198.358 17.256 198.83 17.144 199.294 17.144H200.542V20.048H199.342C198.35 20.048 197.614 20.2 197.134 20.504C196.67 20.808 196.438 21.312 196.438 22.016V29H192.934V17.384ZM200.938 17.384H204.658L207.202 25.424L209.65 17.384H213.178L208.906 29H205.354L200.938 17.384ZM220.54 29.24C216.428 29.24 214.372 27.984 214.372 25.472V21.296C214.372 19.84 214.836 18.784 215.764 18.128C216.708 17.472 218.156 17.144 220.108 17.144C221.948 17.144 223.292 17.464 224.14 18.104C225.004 18.728 225.436 19.792 225.436 21.296V24.128H217.9V25.184C217.9 25.856 218.14 26.336 218.62 26.624C219.1 26.912 219.964 27.056 221.212 27.056C222.364 27.056 223.66 26.888 225.1 26.552V28.784C223.676 29.088 222.156 29.24 220.54 29.24ZM222.1 22.136V20.456C222.1 20.072 221.94 19.784 221.62 19.592C221.316 19.4 220.796 19.304 220.06 19.304C219.212 19.304 218.644 19.4 218.356 19.592C218.052 19.8 217.9 20.088 217.9 20.456V22.136H222.1ZM231.402 28.904L226.77 17.384H230.586L233.202 25.592L235.578 17.384H239.202L232.842 33.992H229.29L231.402 28.904Z" fill="#ED7947"/>
</svg>
